<svg xmlns="http://www.w3.org/2000/svg" viewBox="0 0 1618 1000">
  <defs>
    <style>
      .a {
        fill: #8f8f8f;
      }

      .b {
        fill: none;
        stroke: #000;
      }
    </style>
  </defs>
  <g>
    <path class="a" d="M1364.6,1034.9a26.6,26.6,0,0,1-21.1-10.5L989.3,568.5a36.7,36.7,0,0,0-58.4,0L577.2,1024.4a26.9,26.9,0,0,1-21.1,10.5,26.6,26.6,0,0,1-21.1-10.5L157.6,539.3,535,55.6a26.5,26.5,0,0,1,42.2,0L931,510.2a36.7,36.7,0,0,0,58.3,0L1344,55.6a26.5,26.5,0,0,1,42.2,0l376.4,484.2-376.9,484.6A26.6,26.6,0,0,1,1364.6,1034.9Z" transform="translate(-147.2 -36.2)"/>
    <path d="M556.1,50.2h0a21.5,21.5,0,0,1,17,8.5L927,513.3a41.7,41.7,0,0,0,66.3,0L1348,58.7a21.5,21.5,0,0,1,17.1-8.5,21.3,21.3,0,0,1,17,8.6l374.1,481-374.5,481.5a21.5,21.5,0,0,1-34.2,0L993.3,565.4a41.7,41.7,0,0,0-66.4,0L573.2,1021.2a21.4,21.4,0,0,1-34.2.1l-375-482L539,58.7a21.7,21.7,0,0,1,17.1-8.5m0-10.2A31.6,31.6,0,0,0,531,52.4L151.1,539.3l379.8,488.2a31.6,31.6,0,0,0,50.3,0L935,571.6a31.6,31.6,0,0,1,50.3,0l354.2,455.9a31.5,31.5,0,0,0,50.2,0l379.4-487.7L1390.2,52.5a31.5,31.5,0,0,0-50.2-.1L985.2,507.1A31.5,31.5,0,0,1,935,507L581.2,52.5A31.8,31.8,0,0,0,556.1,40Z" transform="translate(-147.2 -36.2)"/>
  </g>
  <rect class="b" x="2" y="2" width="80" height="998"/>
</svg>
